# xmcd CD database file
# Copyright (C) 1997 Ti Kan
#
# Track frame offsets:
#  182
#  14652
#  27532
#  45710
#  63007
#  75322
#  95175
#  108842
#  122957
#  135965
#  151277
#  165955
#
# Disc length: 2603 seconds
#
# Revision: 1
# Processed by: cddbd v1.4b41PL1 Copyright (c) Steve Scherf et al.
# Submitted via: CDWizzard Release:4.32
#
DISCID=8e0a290c
DTITLE=Charles Aznavour - AZNAVOUR
DYEAR=1900
DGENRE=
TTITLE0=The Old Fashioned Way
TTITLE1=After Loving You 
TTITLE2=The Happy Days
TTITLE3=Then
TTITLE4=La Baraka
TTITLE5=It Will Be My Day
TTITLE6=How Sad Venise Can Be
TTITLE7=My Young And Troubled Days
TTITLE8=We
TTITLE9=I Act As If
TTITLE10=Hungry For Your Loving
TTITLE11=No I Could Never Forget
EXTD=
EXTT0=Charles Aznavour
EXTT1=Charles Aznavour
EXTT2=Charles Aznavour
EXTT3=Charles Aznavour
EXTT4=Charles Aznavour
EXTT5=Charles Aznavour
EXTT6=Charles Aznavour
EXTT7=Charles Aznavour
EXTT8=Charles Aznavour
EXTT9=Charles Aznavour
EXTT10=Charles Aznavour
EXTT11=Charles Aznavour
PLAYORDER=
